<svg enable-background="new 0 0 161 42" viewBox="0 0 161 42" xmlns="http://www.w3.org/2000/svg"><path d="m104.4 11-20.2 31h-23.6l20.2-31z" fill="#5d7eb6" opacity=".95"/><path d="m74.1 0h23.6l-20.2 31h-23.7z" fill="#5da0df" opacity=".8"/><path d="m13.9 20.9h12.4" fill="none"/><path d="m32 30h4v-18l-4 5.9z"/><path d="m50.9 23-4.4-11h-4.5v17.9l3.6-5.9v-6l5.4 11 5.4-11v12h3.6v-18h-4.5z"/><path d="m75.3 23s0 4.1-3.7 4.1-3.7-4-3.7-4v-11.1l-3.6 6v5s-.1 7 7.3 7 7.3-7 7.3-7v-11h-3.6z"/><path d="m101.9 14.9h.1l4.2 2 1.8-3s-2.1-1-2.6-1.1c-.4-.1-2.3-.9-3.5-.9s-1.9.5-2.5.8c-2.1 1.1-2.5 3.2-2.5 4.4s.3 1.7.8 2.5c1.2 1.9 4.3 2.7 4.3 2.7s2.6.9 2.6 2.8-2.1 2-2.1 2h-.5l-4.2-2-1.8 2.9s.5.3 2.3 1.1c1.2.5 2.5.8 3.7.8.4 0 2.7-.1 4.3-1.4 1.6-1.4 1.7-2.8 1.7-3.8s-.2-2-1.6-3.3c-1.4-1.4-3.6-2-3.6-2s-2.5-1-2.5-2.7 1.6-1.8 1.6-1.8z"/><path d="m7.4 19.9c-1.5-.5-3-1.4-3-3s1.5-1.9 1.5-1.9h.1l4.2 2 1.7-3s-4.2-2-6-2c-2.7 0-5.1 2.2-5.1 5.1s2.9 4.4 4.6 5c1.7.7 3 1.4 3 3.1s-2 1.9-2 1.9h-.2l-4.4-2-1.8 2.9s1 .5 2.3 1.1c1.3.7 3.3.9 3.9.9s2.2-.1 4-1.3c1.9-1.2 1.8-3.5 1.8-3.8 0-.4.1-1.7-1.1-2.9-1.2-1.1-2.1-1.6-3.5-2.1z"/><path d="m120.3 12h-.6s-7.7.1-7.7 8.6v1s-.3 7.4 7.2 8.4h1.5s7.3-.5 7.3-8.3-3.6-9.2-7.7-9.7zm-.3 15.1c-2.5 0-4.4-2.7-4.4-6s2-6 4.4-6c2.5 0 4.4 2.7 4.4 6s-1.9 6-4.4 6z"/><path d="m16 15h4.1v15l3.4-6v-9h2.8l1.7-3h-12z"/><path d="m148 12v3h4.1v8.3 6.7h3.5v-6-.7-8.3h2.7l1.7-3z"/><path d="m133 30h3.7v-8-.3h4.7l1.8-2.7h-6.5v-4h7.3v-3h-11z"/><path d="m86.6 27v-15h-3.6v18h8.2l1.8-2.9h-6.4z"/></svg>